<svg width="48" height="48" viewBox="0 0 48 48" fill="none" xmlns="http://www.w3.org/2000/svg">
<path d="M47.8557 14.105C47.7389 11.5503 47.3331 9.80566 46.7399 8.2793C46.1375 6.67786 45.1926 5.22729 43.9717 4.02832C42.7731 2.80737 41.3221 1.86218 39.7207 1.2594C38.194 0.666504 36.4497 0.261108 33.895 0.14502C31.3356 0.027832 30.5178 0 24 0C17.4822 0 16.6644 0.027832 14.105 0.144287C11.5503 0.261108 9.80603 0.66687 8.2793 1.26013C6.67786 1.86255 5.22729 2.80737 4.02832 4.02832C2.80737 5.22693 1.86218 6.67749 1.2594 8.27893C0.666504 9.80566 0.261108 11.5503 0.14502 14.1046C0.027832 16.6644 0 17.4818 0 23.9996C0 30.5178 0.027832 31.3356 0.14502 33.895C0.261475 36.4493 0.667236 38.194 1.2605 39.7207C1.86292 41.3218 2.80774 42.7727 4.02869 43.9713C5.22729 45.1923 6.67822 46.1371 8.27966 46.7395C9.80603 47.3331 11.5507 47.7385 14.1053 47.8553C16.6652 47.9722 17.4825 47.9996 24.0004 47.9996C30.5182 47.9996 31.3359 47.9722 33.8954 47.8553C36.4501 47.7385 38.1943 47.3331 39.7211 46.7395C42.9448 45.4929 45.4933 42.9445 46.7399 39.7207C47.3335 38.194 47.7389 36.4493 47.8557 33.895C47.9722 31.3352 48 30.5178 48 24C48 17.4818 47.9722 16.6644 47.8557 14.105ZM43.5355 33.6984C43.429 36.0385 43.0378 37.3092 42.7094 38.1548C41.9019 40.248 40.2477 41.9022 38.1544 42.7097C37.3088 43.0382 36.0381 43.4293 33.698 43.5359C31.1678 43.6516 30.4087 43.6758 24 43.6758C17.5909 43.6758 16.8322 43.6516 14.3016 43.5359C11.9619 43.4293 10.6912 43.0382 9.84521 42.7097C8.80298 42.3248 7.85999 41.7114 7.08582 40.9142C6.28857 40.14 5.67517 39.1974 5.29028 38.1548C4.96179 37.3092 4.57068 36.0385 4.46411 33.6984C4.34875 31.1678 4.32422 30.4087 4.32422 24.0004C4.32422 17.5917 4.34875 16.8329 4.46411 14.302C4.57104 11.9619 4.96179 10.6912 5.29028 9.84558C5.67517 8.80298 6.28894 7.85999 7.08582 7.08582C7.85999 6.28857 8.80298 5.67517 9.84558 5.29065C10.6912 4.96179 11.9619 4.57104 14.302 4.46411C16.8325 4.34875 17.5917 4.32422 24 4.32422H23.9996C30.408 4.32422 31.1671 4.34875 33.698 4.46448C36.0381 4.57104 37.3085 4.96216 38.1544 5.29065C39.1967 5.67554 40.1396 6.28894 40.9138 7.08582C41.7111 7.85999 42.3245 8.80298 42.709 9.84558C43.0378 10.6912 43.429 11.9619 43.5355 14.302C43.6509 16.8325 43.6754 17.5917 43.6754 24C43.6754 30.4087 43.6512 31.1675 43.5355 33.6984Z" fill="url(#paint0_linear)"/>
<path d="M23.9996 11.6755C17.1932 11.6755 11.6755 17.1936 11.6755 24C11.6755 30.8064 17.1932 36.3241 23.9996 36.3241C30.8064 36.3241 36.3241 30.8064 36.3241 24C36.3241 17.1936 30.8064 11.6755 23.9996 11.6755ZM23.9996 31.9999C19.5817 31.9995 15.9998 28.418 16.0001 23.9996C16.0001 19.5817 19.5817 15.9998 24 15.9998C28.4183 16.0001 31.9999 19.5817 31.9999 23.9996C31.9999 28.418 28.418 31.9999 23.9996 31.9999Z" fill="url(#paint1_linear)"/>
<path d="M39.691 11.1888C39.691 12.7793 38.4016 14.0687 36.8112 14.0687C35.2203 14.0687 33.9309 12.7793 33.9309 11.1888C33.9309 9.59802 35.2203 8.30859 36.8112 8.30859C38.4016 8.30859 39.691 9.59802 39.691 11.1888Z" fill="url(#paint2_linear)"/>
<defs>
<linearGradient id="paint0_linear" x1="4.02808" y1="43.9715" x2="43.9719" y2="4.02769" gradientUnits="userSpaceOnUse">
<stop stop-color="#FFD600"/>
<stop offset="0.5" stop-color="#FF0100"/>
<stop offset="1" stop-color="#D800B9"/>
</linearGradient>
<linearGradient id="paint1_linear" x1="15.2853" y1="32.7144" x2="32.7144" y2="15.2853" gradientUnits="userSpaceOnUse">
<stop stop-color="#FF6400"/>
<stop offset="0.5" stop-color="#FF0100"/>
<stop offset="1" stop-color="#FD0056"/>
</linearGradient>
<linearGradient id="paint2_linear" x1="34.7746" y1="13.2251" x2="38.8474" y2="9.15225" gradientUnits="userSpaceOnUse">
<stop stop-color="#F30072"/>
<stop offset="1" stop-color="#E50097"/>
</linearGradient>
</defs>
</svg>
