<svg width="48" height="48" viewBox="0 0 48 48" fill="none" xmlns="http://www.w3.org/2000/svg">
<g clip-path="url(#clip0)">
<path d="M48 9.117C46.215 9.9 44.313 10.419 42.33 10.671C44.37 9.453 45.927 7.539 46.659 5.232C44.757 6.366 42.657 7.167 40.419 7.614C38.613 5.691 36.039 4.5 33.231 4.5C27.783 4.5 23.397 8.922 23.397 14.343C23.397 15.123 23.463 15.873 23.625 16.587C15.444 16.188 8.205 12.267 3.342 6.294C2.493 7.767 1.995 9.453 1.995 11.268C1.995 14.676 3.75 17.697 6.366 19.446C4.785 19.416 3.234 18.957 1.92 18.234C1.92 18.264 1.92 18.303 1.92 18.342C1.92 23.124 5.331 27.096 9.804 28.011C9.003 28.23 8.13 28.335 7.224 28.335C6.594 28.335 5.958 28.299 5.361 28.167C6.636 32.064 10.254 34.929 14.556 35.022C11.208 37.641 6.957 39.219 2.355 39.219C1.548 39.219 0.774 39.183 0 39.084C4.359 41.895 9.525 43.5 15.096 43.5C33.204 43.5 43.104 28.5 43.104 15.498C43.104 15.063 43.089 14.643 43.068 14.226C45.021 12.84 46.662 11.109 48 9.117Z" fill="#49BFF2"/>
</g>
<defs>
<clipPath id="clip0">
<rect width="48" height="48" fill="white"/>
</clipPath>
</defs>
</svg>
