<svg width="48" height="48" viewBox="0 0 48 48" fill="none" xmlns="http://www.w3.org/2000/svg">
<g clip-path="url(#clip0)">
<path d="M47.011 12.4776C46.4577 10.4213 44.8365 8.80047 42.7806 8.24676C39.0244 7.21881 23.9995 7.21881 23.9995 7.21881C23.9995 7.21881 8.97506 7.21881 5.21885 8.20758C3.2025 8.76092 1.54174 10.4217 0.988399 12.4776C0 16.2334 0 24.0227 0 24.0227C0 24.0227 0 31.8512 0.988399 35.5678C1.54211 37.6237 3.16295 39.2449 5.21922 39.7986C9.01461 40.8266 23.9999 40.8266 23.9999 40.8266C23.9999 40.8266 39.0244 40.8266 42.7806 39.8378C44.8368 39.2845 46.4577 37.6633 47.0114 35.6074C47.9998 31.8512 47.9998 24.0622 47.9998 24.0622C47.9998 24.0622 48.0394 16.2334 47.011 12.4776Z" fill="#FF0000"/>
<path d="M19.2158 31.2188L31.7098 24.0228L19.2158 16.8267V31.2188Z" fill="white"/>
</g>
<defs>
<clipPath id="clip0">
<rect width="48" height="48" fill="white"/>
</clipPath>
</defs>
</svg>
